<svg id="Capa_1" data-name="Capa 1" xmlns="http://www.w3.org/2000/svg" viewBox="0 0 88 36"><defs><style>.cls-2{fill:#00d3ef}</style></defs><path d="M64.56 17.26a12.52 12.52 0 013.92-9.48c-3.71 1.29-6.45 5.7-6.45 11 0 6.26 3.89 11.34 8.68 11.34 2.34 0 5.75-1.21 8.63-3.17a14.84 14.84 0 01-6.1 1.7c-4.79-.04-8.68-5.12-8.68-11.39z" fill="#e4007c"/><path class="cls-2" d="M87.35 17.26C87.35 11 78 5.92 73.24 5.92a7.3 7.3 0 00-4.76 1.86 6.71 6.71 0 012.23-.39c4.8 0 14.11 5.08 14.11 11.35 0 3.21-2.45 6.11-5.48 8.17 4.08-2 8.01-5.57 8.01-9.65z"/><path d="M84.82 18.74c0-6.27-9.31-11.35-14.11-11.35a6.71 6.71 0 00-2.23.39 12.52 12.52 0 00-3.92 9.48c0 6.27 3.89 11.35 8.68 11.35a14.84 14.84 0 006.1-1.7c3.03-2.06 5.48-4.91 5.48-8.17z" fill="#000068"/><path d="M80.2 16.59l-1.83 5.05a1 1 0 01-1.79 0l-1.89-4.58H72.1v2.15a1.45 1.45 0 001.31 1.56h.1a.75.75 0 01.75.74.76.76 0 01-.75.75h-.1a2.94 2.94 0 01-2.8-3.05v-2.13H69.1a.75.75 0 01-.75-.74.76.76 0 01.75-.75h1.51v-1.42a.75.75 0 01.75-.74.74.74 0 01.74.74v1.42H75a1.1 1.1 0 011 .72l1.46 3.53 1.36-3.76a.75.75 0 011.4.51z" fill="#fff"/><path class="cls-2" d="M21.07 6.24q-2 0-2 1.86v18.76q0 1.86 2 1.86c1.33 0 2-.62 2-1.86V8.1c0-1.24-.67-1.86-2-1.86m6.87 6.3q-2 0-2 1.86v12.46q0 1.86 2 1.86t2-1.86V14.4q0-1.86-2-1.86m-19.2 0a9.1 9.1 0 00-4.08.89V8.06c0-1.23-.66-1.85-2-1.85s-2 .62-2 1.85v12.58c0 4.46 2.72 8.08 8.09 8.08s8.09-3.62 8.09-8.08-2.71-8.1-8.09-8.1m4.06 8.1c0 2.67-1.76 4.84-4.06 4.84s-4.06-2.17-4.06-4.85c0-2.67 1.77-4.84 4.06-4.84S12.8 18 12.8 20.63zm16.8-12.77l-1.35-.79-1.36-.78a.68.68 0 00-.33-.09.67.67 0 00-.67.67V10a.67.67 0 001 .58l1.36-.79L29.61 9a.66.66 0 000-1.15m26.63 9.47c-.12-2.66-2.91-4.79-6.35-4.79a6.89 6.89 0 00-5.37 2.31 6.93 6.93 0 00-5.38-2.31c-3.49 0-6.33 2.21-6.35 4.93v9.36c0 1.27.67 1.9 2 1.9a2.08 2.08 0 001.46-.51 1.72 1.72 0 00.56-1.33V19.1a2.84 2.84 0 015.67 0v7.78a1.67 1.67 0 001.79 1.83h.47a1.67 1.67 0 001.79-1.83V19.1a2.84 2.84 0 015.67 0v7.78a1.71 1.71 0 00.55 1.33 2.1 2.1 0 001.47.51c1.34 0 2-.63 2-1.9v-9.33a1 1 0 000-.17"/></svg>